<svg width="56" height="51" viewBox="0 0 56 51" fill="none" xmlns="http://www.w3.org/2000/svg">
<path d="M28 27.7778L3.92593 40.2778L27.537 50.0001L28 27.7778Z" fill="#A7A9BE" stroke="#A7A9BE"/>
<path d="M52.0741 40.2779L27.7964 27.6938L28.463 50.0002L52.0741 40.2779Z" fill="#A7A9BE" stroke="#A7A9BE"/>
<path d="M3 13.8949V40.2778L28.463 27.7778L28 0L3 13.8949Z" fill="#FFF6E8"/>
<g filter="url(#filter0_d_807_1126)">
<path d="M19.2889 28.9388L25.6176 25.93V4.66113L18.8739 8.39616V16.2812L11.4038 20.0162V12.2349L5.07501 15.555V36.2013L11.5076 33.1926V25.1L19.2889 21.4687V28.9388Z" fill="#5738AF"/>
<path d="M19.2889 28.9388L25.6176 25.93V4.66113L18.8739 8.39616V16.2812L11.4038 20.0162V12.2349L5.07501 15.555V36.2013L11.5076 33.1926V25.1L19.2889 21.4687V28.9388Z" stroke="#5738AF"/>
</g>
<path d="M28.463 27.778L28 0L53 13.8891V40.278L28.463 27.778Z" fill="#FFF6E8"/>
<g filter="url(#filter1_d_807_1126)">
<path d="M30.2864 25.8263V19.705L44.5003 26.6563V24.3737L30.2864 17.4225V4.45361L50.6216 14.7249V21.2612L35.889 13.6874V15.9699L50.6216 23.5437V36.2013L30.2864 25.8263Z" fill="#5738AF"/>
<path d="M30.2864 25.8263V19.705L44.5003 26.6563V24.3737L30.2864 17.4225V4.45361L50.6216 14.7249V21.2612L35.889 13.6874V15.9699L50.6216 23.5437V36.2013L30.2864 25.8263Z" stroke="#5738AF"/>
</g>
<defs>
<filter id="filter0_d_807_1126" x="0.575012" y="2.8125" width="29.5426" height="41.1748" filterUnits="userSpaceOnUse" color-interpolation-filters="sRGB">
<feFlood flood-opacity="0" result="BackgroundImageFix"/>
<feColorMatrix in="SourceAlpha" type="matrix" values="0 0 0 0 0 0 0 0 0 0 0 0 0 0 0 0 0 0 127 0" result="hardAlpha"/>
<feOffset dy="3"/>
<feGaussianBlur stdDeviation="2"/>
<feComposite in2="hardAlpha" operator="out"/>
<feColorMatrix type="matrix" values="0 0 0 0 0 0 0 0 0 0 0 0 0 0 0 0 0 0 0.25 0"/>
<feBlend mode="normal" in2="BackgroundImageFix" result="effect1_dropShadow_807_1126"/>
<feBlend mode="normal" in="SourceGraphic" in2="effect1_dropShadow_807_1126" result="shape"/>
</filter>
<filter id="filter1_d_807_1126" x="25.7864" y="2.64111" width="29.3351" height="41.3765" filterUnits="userSpaceOnUse" color-interpolation-filters="sRGB">
<feFlood flood-opacity="0" result="BackgroundImageFix"/>
<feColorMatrix in="SourceAlpha" type="matrix" values="0 0 0 0 0 0 0 0 0 0 0 0 0 0 0 0 0 0 127 0" result="hardAlpha"/>
<feOffset dy="3"/>
<feGaussianBlur stdDeviation="2"/>
<feComposite in2="hardAlpha" operator="out"/>
<feColorMatrix type="matrix" values="0 0 0 0 0 0 0 0 0 0 0 0 0 0 0 0 0 0 0.25 0"/>
<feBlend mode="normal" in2="BackgroundImageFix" result="effect1_dropShadow_807_1126"/>
<feBlend mode="normal" in="SourceGraphic" in2="effect1_dropShadow_807_1126" result="shape"/>
</filter>
</defs>
</svg>
